<svg xmlns="http://www.w3.org/2000/svg" fill="none" viewBox="0 0 103 176"><path fill="#609607" d="M68.6 172.6C67.7 162.8 64.3.3 62 .3c-3 0-3.8 159.7-3.5 172.3h10.1Z"/><path fill="#99CA00" d="M90.2 172.6s3.4-82 .6-82c-2.7 0-8.6 82-8.6 82h8Z"/><path fill="#7DB500" d="M72 172.6h7.7S79.1 52.4 77 52.4c-2.5-.3-5 120.2-5 120.2Zm-25.3 0h9S50.7 17 48 17c-2.8 0-1.3 155.7-1.3 155.7Z"/><path fill="#609607" d="M32.3 172.3h11.4S38 47.1 36 47.1c-2.2 0-3.8 111-3.8 125.2Z"/><path fill="#9ACD04" d="M22.7 172.6H30S25.8 68.4 23 68.4c-3 0-.3 104.2-.3 104.2Z"/><path fill="#7EB500" d="M12.8 172.6h7.4S14.1 92.2 12 92.2c-2.2 0 1 80.4 1 80.4Z"/><path fill="#262D00" d="M100 175.1H3.4a2.8 2.8 0 0 1-2.8-2.8c0-1.5 1.2-2.8 2.8-2.8H100c1.5 0 2.8 1.3 2.8 2.8 0 1.6-1.6 2.8-2.8 2.8Z"/></svg>