<svg xmlns="http://www.w3.org/2000/svg" fill="none" viewBox="0 0 160 191"><path fill="#BC3E3E" d="M118.7 93c0-2 0-4 1.2-5.6.6-1 1.3-1.9 1.9-3.1.6-1.2.6-2.5.6-3.7 0-2.2-1-4.3-2.5-6.2-1.8-2.1-3-4.3-3.4-6.8a8 8 0 0 1 2.2-6.7c1-1 1.5-2.2 2.2-3.1.6-1.3.6-2.5.9-3.4 0-1.2 0-2.5-.6-3.4-.7-1.2-1.6-2.5-2.5-3.4a7.8 7.8 0 0 1-1.5-6.2 12 12 0 0 1 3.3-6.4 12 12 0 0 0 3.1-5.9c0 1.9 0 4-1.2 5.6a27 27 0 0 0-1.9 3c-.6 1.3-.6 2.5-.6 3.7 0 2.2 1 4.4 2.5 6.2 1 1 1.5 1.9 2.2 3 .6 1.3.9 2.6.9 3.8.3 2.5-.3 4.6-2.2 6.8-.9.9-1.5 2.1-2.1 3-.7 1.3-.7 2.5-1 3.4 0 1.3 0 2.5.7 3.4.6 1.3 1.5 2.5 2.4 3.4a7.8 7.8 0 0 1 1.6 6.2 12 12 0 0 1-3.4 6.5 14.7 14.7 0 0 0-2.8 5.8Zm18.5 15.7c0-1.9 0-4 1.2-5.6.7-1 1.3-1.8 1.9-3 .6-1.3.6-2.5.6-3.8 0-2.1-1-4.3-2.5-6.1a13 13 0 0 1-3.4-6.8c-.3-2.5.4-4.7 2.2-6.8 1-1 1.5-2.2 2.2-3 .6-1.3.6-2.6.9-3.5 0-1.2 0-2.5-.6-3.4-.6-1.2-1.6-2.4-2.5-3.4a7.8 7.8 0 0 1-1.5-6.1 12 12 0 0 1 3.4-6.5 12 12 0 0 0 3-5.9c0 1.9 0 4-1.2 5.6-.6 1-1.2 1.8-1.8 3-.7 1.3-.7 2.5-.7 3.8 0 2.1 1 4.3 2.5 6.1 1 1 1.5 1.9 2.2 3.1.6 1.2.9 2.5.9 3.7.3 2.5-.3 4.6-2.2 6.8-.9 1-1.5 2.2-2.1 3-.6 1.3-.6 2.5-1 3.5 0 1.2 0 2.4.7 3.4a16 16 0 0 0 2.4 3.4c1.6 1.8 1.9 4.3 1.6 6.1a12 12 0 0 1-3.4 6.5 14.7 14.7 0 0 0-2.8 5.9ZM45 93c0-2 0-4 1.2-5.6.6-1 1.3-1.9 1.9-3.1.6-1.2.6-2.5.6-3.7 0-2.2-1-4.3-2.5-6.2-1.8-2.1-3-4.3-3.4-6.8a8 8 0 0 1 2.2-6.7c1-1 1.5-2.2 2.2-3.1.6-1.3.6-2.5.9-3.4 0-1.2 0-2.5-.6-3.4-.7-1.2-1.6-2.5-2.5-3.4-1.5-1.8-1.9-4.3-1.5-6.2a12 12 0 0 1 3.3-6.4 12 12 0 0 0 3.2-6c0 1.9 0 4-1.2 5.6l-1.9 3c-.6 1.3-.6 2.5-.6 3.7 0 2.2 1 4.4 2.5 6.2 1 1 1.5 1.9 2.2 3 .6 1.3.9 2.6.9 3.8.3 2.5-.3 4.6-2.2 6.8-.9.9-1.5 2.1-2.1 3-.7 1.3-.7 2.5-1 3.4 0 1.3 0 2.5.7 3.4.6 1.3 1.5 2.5 2.4 3.4a7.8 7.8 0 0 1 1.6 6.2 12 12 0 0 1-3.4 6.5 20.4 20.4 0 0 0-2.8 5.8Zm-18.2 15.7c0-1.9 0-4 1.2-5.6.7-1 1.3-1.8 1.9-3 .6-1.3.6-2.5.6-3.8 0-2.1-1-4.3-2.5-6.1-1.8-2.2-3-4.4-3.4-6.8-.3-2.5.4-4.7 2.2-6.8 1-1 1.5-2.2 2.2-3 .6-1.3.6-2.6.9-3.5 0-1.2 0-2.5-.6-3.4-.6-1.2-1.6-2.4-2.5-3.4-1.5-1.8-1.8-4.3-1.5-6.1a12 12 0 0 1 3.4-6.5 12 12 0 0 0 3-5.9c0 1.9 0 4-1.2 5.6-.6 1-1.2 1.8-1.8 3-.7 1.3-.7 2.5-.7 3.8 0 2.1 1 4.3 2.5 6.1 1 1 1.5 1.9 2.2 3.1.6 1.2.9 2.5.9 3.7.3 2.5-.3 4.6-2.2 6.8-.9 1-1.5 2.2-2.1 3-.6 1.3-.6 2.5-1 3.5 0 1.2 0 2.4.7 3.4a16 16 0 0 0 2.4 3.4c1.6 1.8 1.9 4.3 1.6 6.1a12 12 0 0 1-3.4 6.5 11.5 11.5 0 0 0-2.8 5.9Zm73.7-33.3c0-1.9 0-4 1.2-5.6.7-1 1.3-1.8 1.9-3 .6-1.3.6-2.5.6-3.8 0-2.1-1-4.3-2.5-6.1a13 13 0 0 1-3.4-6.8c-.3-2.5.4-4.7 2.2-6.8 1-1 1.5-2.2 2.2-3.1.6-1.2.6-2.5.9-3.4 0-1.2 0-2.5-.6-3.4-.6-1.2-1.6-2.4-2.5-3.4-1.5-1.8-1.8-4.3-1.5-6.1a12 12 0 0 1 3.4-6.5 12 12 0 0 0 3-5.9c0 1.9 0 4-1.2 5.6-.6.9-1.2 1.8-1.8 3-.7 1.3-.7 2.5-.7 3.8 0 2.1 1 4.3 2.5 6.1 1 1 1.6 1.9 2.2 3.1.6 1.2.9 2.5.9 3.7.3 2.5-.3 4.6-2.2 6.8-.9 1-1.5 2.2-2.1 3-.6 1.3-.6 2.5-1 3.5 0 1.2 0 2.4.7 3.4a16 16 0 0 0 2.4 3.4 7.8 7.8 0 0 1 1.6 6.1 12 12 0 0 1-3.4 6.5 11.5 11.5 0 0 0-2.8 5.9ZM82 64c0-1.9 0-4 1.2-5.6l1.9-3c.6-1.3.6-2.6.6-3.8 0-2.1-1-4.3-2.5-6.2-1.8-2.1-3-4.3-3.4-6.7-.3-2.5.4-4.7 2.2-6.8 1-1 1.5-2.2 2.2-3.1.6-1.2.6-2.5.9-3.4 0-1.2 0-2.5-.6-3.4-.6-1.2-1.6-2.5-2.5-3.4a7.8 7.8 0 0 1-1.5-6.1A12 12 0 0 1 83.9 6a12 12 0 0 0 3-5.9c0 1.9 0 4-1.2 5.6-.6.9-1.2 1.8-1.8 3-.7 1.3-.7 2.5-.7 3.8 0 2.1 1 4.3 2.5 6.1 1 1 1.5 1.9 2.2 3.1.6 1.2.9 2.5.9 3.7.3 2.5-.3 4.6-2.2 6.8-.9 1-1.5 2.1-2.1 3-.6 1.3-.6 2.5-1 3.5 0 1.2 0 2.4.7 3.4.6 1.2 1.5 2.4 2.4 3.3a7.8 7.8 0 0 1 1.6 6.2 12 12 0 0 1-3.4 6.5 11.5 11.5 0 0 0-2.8 5.8ZM63.5 75.4c0-1.9 0-4 1.2-5.6.7-1 1.3-1.8 1.9-3 .6-1.3.6-2.5.6-3.8 0-2.1-1-4.3-2.5-6.1-1.8-2.2-3-4.4-3.4-6.8a8 8 0 0 1 2.2-6.8c1-1 1.5-2.2 2.2-3.1.6-1.2.6-2.5.9-3.4 0-1.2 0-2.5-.6-3.4-.6-1.2-1.6-2.4-2.5-3.4a7.8 7.8 0 0 1-1.5-6 12 12 0 0 1 3.4-6.5 12 12 0 0 0 3-5.9c0 1.9 0 4-1.2 5.6-.6.9-1.2 1.8-1.8 3-.7 1.3-.7 2.5-.7 3.8 0 2.1 1 4.3 2.5 6.1 1 1 1.5 1.9 2.2 3.1.6 1.2.9 2.5.9 3.7.3 2.5-.3 4.6-2.2 6.8-.9 1-1.5 2.2-2.1 3-.6 1.3-.6 2.5-1 3.5 0 1.2 0 2.4.7 3.4a16 16 0 0 0 2.4 3.4c1.6 1.8 1.9 4.3 1.6 6.1a12 12 0 0 1-3.4 6.5 14.7 14.7 0 0 0-2.8 5.9Z"/><path fill="#99CA00" d="M60.1 188.5H48.7c16.7-12.6-.3-36 9.9-60.1 6.4-15.1 27.4-20 12-44.4-5-7.7 2.2-17.6 5.2-21C64.1 88.6 94 92 64.4 129.3c-18.2 22.5 7.4 38.9-4.3 59.2Z"/><path fill="#7DB500" d="m43.8 188.5-9.3.3c-2.8-8-7.4-24.3 1.9-33.3 16.6-16-5.6-13.8-8.4-27.4-1.5-7.7-.6-11.1 1.3-13.9-5.3 23.4 26.5 24.4 13.2 42.6-11.4 13-10.8 15.4 1.3 31.7Z"/><path fill="#99CA00" d="M43.8 186.4c3.4 6.8 5.5-.7 5.5-.7-14.5-16.3 10.5-27.4-.3-52-8.6-19.6 14-22.7 14.8-35.3.3-5.6-1.2-9.6-3.7-14.5 6.8 36-29.6 28-15.4 52.4 14.2 25-11.7 29.3-1 50Zm32.7 0c9.2-4 14.1-15.1 8.6-23.8-2.2-4-6.5-7-9-5.5-3.3 1.2-4 6.8-1.5 9 3.7 2 9.3-2.2 9.9-6.3 1.5-10.7-8.7-18.8-10.5-29-1-6.1 3-11 7-14.1-3.6 4-6 9-4.9 13.9 1 4.6 5 8.6 7.4 13.5 4.7 8.3 4.4 22-6.1 25.6-5.3 2.5-10.5-4.3-9.9-9.2.3-8.4 10.2-12.4 16-7.4 13 9.8 8 30.5-6.1 36 .6 0-1-2.7-1-2.7Z"/><path fill="#609607" d="M90 186c22.2-25 12-45.3-3.4-70.9-3.4-6.1-4.9-14.8-.9-21 1.9-4 7.1-5.8 10.5-2.7 3.7 2.5 6.8 11 0 11.4-5-3.4-4.3-12-5-17.3-.6-6.1-.9-14.2-8.9-13.8C95.6 68.3 94 87 94.6 95c.4 2.8 1.6 7.7 3.4 5.2 1.3-1.8-.9-5.5-3-7-6.2-3.8-8 6.7-7.1 10.7 2.4 9.3 9.5 16.7 14.1 25.6 10.8 19.1 2.8 41.7-6.1 59.8-.3.4-5.9-3.3-5.9-3.3Z"/><path fill="#7DB500" d="M16 185.1c7.1-1.2 9.9-9.5 7.1-15.7-1.2-3.4-4.6-5.5-7-2.5-3.5 4 1.1 5.6 4.5 3.4 4-2.1 8.7-9 3.1-11-5.5-1.3-8-6.5-3.4-10.6 3.1-3 8-.6 10.2-4.3 1-1.5 0-3.7-1.5-4.6 4.6 2.5 2.4 8.6-2.5 9-2.8 0-6.8 2.7-5.6 5.5.7 1 1.9 1 4.4 1.8 2.1 1 4.3 3.4 3.7 6.2-1.3 4.6-4.7 7.1-8 9-1.6.9-3.8 1.8-6 .9-4.2-3.4 1.3-9.9 6-8a9 9 0 0 1 4.6 4.3c4.3 7.7 1.2 18.8-7.4 22.2-.3-.3-2.2-5.6-2.2-5.6Zm97.8 3.4 9 .3c3.6-8 10-24.3 2-33.3-14.7-16 7.2-13.8 11.5-27.4 2.4-7.7 1.8-11.1.3-13.9 2.8 23.4-29.3 24.4-17.9 42.6 9.9 13 9 15.4-5 31.7Z"/><path fill="#99CA00" d="M113.8 186.4c-4.3 6.8-5.3-.7-5.3-.7 16.4-16.3-7-27.4 6.2-52 10.8-19.5-11.4-22.6-10.8-35.2a29 29 0 0 1 5.2-14.5c-10.8 36 26.3 28 9.6 52.4-17 25 8.3 29.3-5 50Z"/><path fill="#7DB500" d="M139.7 190.4c-11.1-4.3-10.8-21.6-.6-26.5 9.2-2.2 9.2 13-.7 7.4-5.2-2.8-10.8-11.8-2.7-15.2 2.4-.9 3.7-.6 4.3-1.8 1.8-2.8-1.9-5.2-4.6-5.6-2.2 0-4.7-1.8-4.7-4-.3-2.1 1.6-4 3.1-4.9-1.5 1.2-2.5 3-2.1 4.6 1.2 3.7 6.7 1.3 9.8 4.3 1.9 1.6 2.8 4.4 1.3 6.8-2.8 4-7.1 2.5-8.4 5.9-.6 2.8 1.6 6.8 4.7 8.6 3 2.2 7.7.3 4.9-3.4-6.2-5.8-10.5 7.7-8.6 12.4.9 3 3.3 5.2 6.4 5.8l-2.1 5.6Z"/><path fill="#262D00" d="M156.3 190.7H3.1a2.8 2.8 0 0 1-2.8-2.8c0-1.5 1.2-2.8 2.8-2.8h153.2c1.6 0 2.8 1.3 2.8 2.8-.3 1.5-1.5 2.8-2.8 2.8Z"/></svg>