<svg xmlns="http://www.w3.org/2000/svg" fill="none" viewBox="0 0 86 62"><path fill="#BC3E3E" d="M12.44 37.25V9.2c0-.61-.3-.92-.92-.92-.62 0-.93.3-.93.92v28.06a6.36 6.36 0 0 0-5.24 6.48c0 3.7 2.77 6.48 6.47 6.48 3.7 0 6.48-2.78 6.48-6.48a7.22 7.22 0 0 0-5.86-6.48Z"/><path fill="#262D00" d="M5.35 18.14v15.72A11.87 11.87 0 0 0 .4 46.81a11.2 11.2 0 0 0 10.8 8.33c4.93.3 9.56-3.4 11.1-8.02 1.85-4.93-.62-10.48-4.63-13.26V10.12c0-1.54.31-3.4 0-4.93C16.76.25 9.36-.36 6.58 3.03c-1.54 1.85-1.23 4-1.23 6.17v8.94ZM7.2 34.17V9.81c0-1.85-.31-4 .62-5.55 1.23-1.85 4.62-1.85 6.47-.92 1.24.61 1.85 2.16 1.85 3.7v27.44c0 .3 0 .62.31.62h.3a9.76 9.76 0 0 1 1.86 15.41C14.29 54.83 6.89 53.6 3.5 48.66a10.58 10.58 0 0 1-.93-8.63 11.09 11.09 0 0 1 2.47-3.7c.3-.62 2.16-1.23 2.16-2.16Z"/><path fill="#BC3E3E" d="M36.19 16.29c.61-.62.92-.93 1.85-.93.61 0 .92.31 1.23.31.3.31.3.93.3 1.54V35.1c.01.61.01.92-.3 1.54-.3.3-.62.62-1.23.62-.62 0-1.24-.31-1.24-.62-.3-.3-.3-.62-.3-1.54V19.99l-2.16 2.16c-.62.61-.62.61-1.24.92-.3 0-.92 0-1.23-.3-.3-.31-.62-.93-.3-1.24 0-.3.3-.62.92-1.23l3.7-4.01Zm12.03 8.63c.61-.3 1.23-.3 1.85-.3 3.08 0 5.85 2.46 5.85 6.47 0 4-2.77 6.78-6.47 6.78-3.7 0-6.48-2.46-6.48-6.47 0-1.85.62-3.4 1.54-5.24l4.63-9.25c.3-.62.62-.93.93-1.24.3 0 .3-.3.61-.3.62 0 1.54.61 1.54 1.23 0 .3 0 .61-.3 1.23l-3.7 7.1Zm1.23 2.16c-1.85 0-3.4 1.54-3.4 3.7 0 2.47 1.24 3.7 3.4 3.7s3.4-1.54 3.4-3.7-1.24-3.7-3.4-3.7Zm16.03 10.48a6 6 0 0 1-6.16-6.16v-9.87c0-4 2.77-6.17 6.16-6.17 3.4 0 6.48 2.47 6.48 6.17v9.87c0 3.7-3.08 6.16-6.48 6.16Zm3.09-16.03c0-2.16-1.24-3.7-3.09-3.7-1.85 0-3.08 1.54-3.08 3.7v9.56c0 2.16 1.23 3.7 3.08 3.7s3.09-1.54 3.09-3.7v-9.56Zm6.16-.93a5.2 5.2 0 0 1 5.25-5.24 5.4 5.4 0 0 1 5.24 5.25 5.2 5.2 0 0 1-5.24 5.24 5.4 5.4 0 0 1-5.25-5.24Zm8.33 0a2.76 2.76 0 0 0-2.77-2.77 2.76 2.76 0 0 0-2.78 2.78 2.76 2.76 0 0 0 2.78 2.77 2.76 2.76 0 0 0 2.77-2.77Z"/></svg>