<svg xmlns="http://www.w3.org/2000/svg" fill="none" viewBox="0 0 137 40"><g clip-path="url(#a)"><path fill="#B1EC52" d="M10 0A10 10 0 0 0 0 10v20a10 10 0 0 0 10 10h20a10 10 0 0 0 10-10V0H10Z"/><path fill="#4D5759" d="M33.05 15h-4.8l-4.57 5V10h-3.7v2.44a6.09 6.09 0 0 0-.4-.47 7.61 7.61 0 0 0-5.77-2.16 6.57 6.57 0 0 0-5.37 2.38 5.78 5.78 0 0 0-1.22 4.65c.86 3.85 4.44 4.47 7.06 4.81 2.07.27 4.06.65 4 2.5-.05 1.84-2.21 2.37-3.66 2.37-3.69 0-3.82-2.73-3.82-2.73H6.86a6.6 6.6 0 0 0 1.62 4.06c1.38 1.55 3.45 2.33 6.16 2.33a8 8 0 0 0 5.33-1.88v1.63h3.7v-4.67L25 23.83l3.74 6.15h4.32l-5.43-9.01L33.05 15Zm-22.12.97c-.32-1.43 1.1-2.7 2.95-2.7 1.63 0 3.32.38 3.97 2.7h2.12v3.53c-2.65-2.18-8.42-.82-9.04-3.53Zm38.5 11.5c.28.1.58.14.88.13a1.35 1.35 0 0 0 .99-.37c.25-.27.43-.6.5-.96l-5.27-11.16h3.5l3.39 8 2.96-8h3.34l-4.75 11a9.94 9.94 0 0 1-1.96 3.25 3.25 3.25 0 0 1-2.33 1.05 3.55 3.55 0 0 1-1.22-.1l-.4-.12a2 2 0 0 0-.31-.1v-2.9a2 2 0 0 0 .68.28Zm16-1.65-.68.17a4.2 4.2 0 0 1-.81.1c-.27.02-.54.02-.81 0-.55.02-1.1 0-1.64-.1a3.6 3.6 0 0 1-1.22-.53c-.34-.26-.6-.6-.75-1a3.92 3.92 0 0 1-.25-1.47v-4.02h2.86v3.43c0 .26.04.52.13.76.06.2.18.38.35.5.18.13.39.22.6.25a5.5 5.5 0 0 0 2.04-.07c.24-.07.47-.18.69-.3v-4.57h2.86V30h-2.86v-4.36l-.5.17Zm14.45 2.81c.01.18.06.35.14.5a.65.65 0 0 0 .46.42v.46H77.3l-.13-.52a2 2 0 0 1-.1-.77l-.65.65a3.93 3.93 0 0 1-1.69.85 5.55 5.55 0 0 1-2.61-.1 3.3 3.3 0 0 1-1.08-.63c-.3-.3-.53-.66-.69-1.06a3.87 3.87 0 0 1-.25-1.47 3.33 3.33 0 0 1 .81-2.28c.27-.3.6-.54.96-.72.38-.21.8-.35 1.24-.4l2.8-.42.33-.06a.67.67 0 0 0 .34-.14c.1-.06.18-.15.24-.25.07-.14.11-.3.1-.46 0-.17-.02-.34-.07-.5a1 1 0 0 0-.3-.4 1.28 1.28 0 0 0-.53-.26 3.62 3.62 0 0 0-1.72.02 1.4 1.4 0 0 0-.88.81l-.12.6h-2.9a4.08 4.08 0 0 1 .32-1.37 4.5 4.5 0 0 1 1.3-1.63c.4-.27.82-.47 1.27-.59a8.61 8.61 0 0 1 4.22.04c.52.18 1 .46 1.43.81.31.3.55.67.68 1.08.1.39.16.79.16 1.19v5.85c0 .25.04.5.09.75Zm-3.45-3.77c-.22.1-.46.17-.7.2l-.77.15c-.3.05-.58.12-.87.22a2.1 2.1 0 0 0-.62.3c-.17.14-.3.3-.38.5-.09.22-.13.46-.12.7 0 .21.03.41.1.6a1.28 1.28 0 0 0 .77.69 1.92 1.92 0 0 0 .99.04 2.36 2.36 0 0 0 1.11-.42c.2-.1.36-.26.5-.45.17-.2.3-.44.36-.7.1-.31.15-.63.15-.96v-1.12c-.16.1-.34.19-.52.25Zm11.45-2.76c-.08-.2-.2-.4-.35-.56a1.55 1.55 0 0 0-.56-.35c-.27-.07-.54-.1-.82-.1a1.88 1.88 0 0 0-1.81 1.14c-.15.36-.26.74-.3 1.12a11.03 11.03 0 0 0-.03 2.26c.03.38.13.75.3 1.1a1.87 1.87 0 0 0 1.85 1.14 1.81 1.81 0 0 0 1.46-.69c.16-.19.29-.4.38-.64.06-.2.1-.4.1-.6h2.98c0 .24-.02.48-.08.7a6.18 6.18 0 0 1-.9 1.92 4.63 4.63 0 0 1-2.22 1.51c-.56.18-1.14.26-1.73.25a6.09 6.09 0 0 1-2.22-.37 4.28 4.28 0 0 1-1.63-1.15 4.95 4.95 0 0 1-1-1.84 8.27 8.27 0 0 1-.35-2.49c-.01-.85.11-1.7.38-2.5.22-.68.58-1.3 1.05-1.84.45-.49 1-.87 1.63-1.12a5.7 5.7 0 0 1 3.18-.3 4.58 4.58 0 0 1 2.07.78 3.94 3.94 0 0 1 1.53 1.94c.18.47.29.96.31 1.47h-2.98a3.9 3.9 0 0 0-.24-.78Zm13.22-3.13v2.32h-3.34v8.72h-2.87v-8.72h-3.34v-2.32h9.55Zm7.96 3.99v-4h2.86v11.05h-2.86v-4.73h-4.22v4.73h-2.86V18.97h2.86v3.99h4.22Zm7.68 2.82 4.06-6.81h3.01V30h-2.86v-6.66h-.05L117 30h-3.13V18.97h2.86v6.8h.01Zm15.99-6.81h3.82l-4.57 4.59 4.75 6.45H133l-3.25-4.67-1.16 1.18v3.49h-2.86V18.97h2.86v4.19l4.14-4.2Z"/></g><defs><clipPath id="a"><path fill="#fff" d="M0 0h136.73v40H0z"/></clipPath></defs></svg>