<svg xmlns="http://www.w3.org/2000/svg" fill="none" viewBox="0 0 200 61"><path fill="#fff" d="M0 0h200v60.59H0z"/><path stroke="#fff" stroke-opacity=".1" stroke-width=".15" d="M.07.08h199.85v60.44H.07z"/><path fill="#023566" d="M59.67 10.83c-.13.04-.13.12.01.35.33.55 1.19.52 1.48-.05.07-.13.1-.24.1-.25-.07-.07-.34-.1-.34-.04 0 .04-.07.14-.15.22-.1.1-.2.14-.38.14-.2 0-.26-.03-.4-.2a.84.84 0 0 0-.2-.2l-.12.03Zm17.94.01-.13.04.12.23c.15.32.42.47.78.46.32 0 .53-.12.69-.38.15-.25.15-.32-.01-.36-.1-.03-.17.01-.3.17-.14.17-.2.2-.4.2-.17 0-.28-.04-.38-.14-.08-.08-.14-.17-.14-.2 0-.07-.03-.07-.23-.02Zm86.39-.01c-.13.03-.1.18.06.42.27.42 1.11.42 1.38 0 .16-.26.17-.38.03-.42-.1-.02-.17.02-.31.17-.15.16-.24.2-.4.2-.22 0-.52-.18-.52-.33 0-.08-.05-.09-.25-.04Zm-79.12 1.16v.2l-.44.06c-.53.08-.92.26-1.2.54-.35.35-.44.6-.44 1.23 0 .51.01.59.17.88.19.32.5.6.85.74.16.07.8.2 1.02.2.02 0 .04.1.04.24v.24l.23-.02c.2-.02.21-.03.23-.23.02-.19.04-.22.2-.25l.32-.04c.3 0 .81-.24 1.11-.55.36-.36.47-.7.46-1.3a1.46 1.46 0 0 0-.42-1.09c-.31-.35-.68-.5-1.38-.6-.27-.04-.28-.05-.28-.25s0-.2-.23-.2-.24 0-.24.2Zm0 2.03v1.35h-.25c-.6 0-1.18-.37-1.32-.85-.3-1 .3-1.82 1.3-1.84h.27v1.34Zm1.42-1.16c.36.2.57.5.63.87.15.9-.35 1.55-1.23 1.63l-.35.03v-2.74l.35.04c.21.02.45.09.6.17Zm-57.02-.96a2 2 0 0 0-1.62 1.36 2.62 2.62 0 0 0 0 1.6c.17.44.62.93 1.05 1.14.3.15.4.17.93.17.54 0 .61-.01.97-.2.2-.1.45-.25.52-.33l.14-.15-.15-.15-.15-.15-.27.2c-.71.55-1.58.5-2.18-.1-.36-.36-.5-.7-.5-1.3 0-.48.16-.89.5-1.22.3-.3.53-.4.97-.44.47-.03.74.04 1.17.33l.31.21.14-.17.13-.16-.21-.18a2.23 2.23 0 0 0-1.75-.45Zm12.44 0c-.61.1-1.24.54-1.52 1.1-.63 1.2 0 2.75 1.26 3.11.47.14 1.13.1 1.56-.11a2.2 2.2 0 0 0 1.16-2.34 2.1 2.1 0 0 0-2.46-1.75Zm1.07.57c.33.15.62.46.78.84.13.28.15.37.13.82-.02.43-.06.56-.19.79-.55.94-1.73 1.14-2.5.42a1.64 1.64 0 0 1-.56-1.32c0-.7.32-1.25.93-1.55.26-.14.36-.16.74-.14.28.01.53.07.67.14Zm3.97-.57c-.4.08-.82.31-1.13.65a1.8 1.8 0 0 0-.56 1.33 2.1 2.1 0 0 0 .7 1.81c.41.38.7.47 1.37.48.55 0 .62-.01.98-.2.2-.1.44-.24.52-.33.13-.13.13-.14.03-.29-.12-.19-.17-.19-.4 0-.35.3-.63.4-1.1.4-.38 0-.48-.02-.76-.18-.73-.4-1.04-1.27-.79-2.13.12-.4.64-.94 1-1.05a1.9 1.9 0 0 1 1.64.31l.21.17.16-.16.16-.16-.18-.15c-.47-.4-1.24-.6-1.85-.5Zm4.41.01a2.1 2.1 0 0 0-1.52 1.22c-.14.3-.16.41-.16.92 0 .52.02.63.16.92.2.42.62.86 1.01 1.05.26.12.38.14.91.15.56 0 .65-.02.94-.17.18-.1.42-.24.53-.34l.2-.17-.15-.16-.16-.15-.2.15c-.42.32-.7.42-1.16.42-.37 0-.48-.02-.75-.17-1.48-.82-.96-3.25.7-3.26.43 0 .7.08 1.06.33l.3.2.15-.14c.18-.17.15-.23-.25-.47a2.19 2.19 0 0 0-1.6-.33Zm13.63 0c-1.49.26-2.2 2.1-1.3 3.4.68 1.02 2.2 1.19 3.17.36l.21-.17-.16-.16-.16-.16-.2.15c-.41.32-.69.42-1.15.42-.6 0-.93-.17-1.32-.69-.2-.27-.35-.86-.3-1.24.18-1.38 1.61-1.96 2.72-1.1l.2.14.14-.14c.08-.07.14-.15.14-.18 0-.09-.56-.45-.82-.54a2.6 2.6 0 0 0-1.17-.09Zm25.16-.01c-.86.14-1.61.9-1.72 1.78-.06.41.02.99.16 1.31.16.37.61.82 1 1.01.3.15.4.17.91.17.52 0 .63-.02.93-.16.41-.2.8-.6 1.03-1.04.14-.29.15-.4.16-.92 0-.51-.02-.63-.16-.92a2.1 2.1 0 0 0-2.3-1.22Zm1.08.57c1.22.6 1.26 2.45.06 3.11-.27.15-.37.17-.76.17-.53 0-.9-.16-1.2-.5a1.6 1.6 0 0 1-.43-1.1c-.03-.5.04-.76.28-1.14.3-.46.75-.68 1.36-.68.3-.01.45.02.69.14Zm23.63-.56a2.1 2.1 0 0 0-1.52 1.22c-.14.3-.16.4-.16.92 0 .53.02.63.17.94.22.44.6.82 1.03 1.02.29.14.4.16.92.16.51 0 .62-.03.88-.16a2.1 2.1 0 0 0 1.21-1.99c0-1.4-1.13-2.33-2.53-2.1Zm1.05.53c.6.27.95.78 1 1.47.03.57-.1.95-.41 1.3-.33.38-.7.54-1.2.54s-.85-.14-1.18-.47c-.35-.35-.47-.68-.47-1.23 0-.53.12-.86.45-1.23a1.64 1.64 0 0 1 1.81-.38Zm22.5-.54a2.1 2.1 0 0 0-1.68 1.6 2.2 2.2 0 0 0 1.16 2.5c.28.14.4.16.9.16.53 0 .63-.02.93-.17a2.22 2.22 0 0 0 .55-3.54 2.16 2.16 0 0 0-1.86-.55Zm.96.51c.35.12.72.48.9.88.2.42.2 1.06.04 1.46a1.59 1.59 0 0 1-1.51 1c-.5 0-.76-.1-1.1-.43a1.77 1.77 0 0 1-.52-1.63 1.65 1.65 0 0 1 2.2-1.28Zm8.01-.5a2.1 2.1 0 0 0-1.56 1.22c-.14.3-.16.41-.16.92 0 .55.01.62.2.98.22.46.54.77 1 .98.29.14.4.16.92.16s.62-.03.9-.17c.18-.1.42-.24.54-.34l.2-.17-.15-.15-.15-.15-.36.24c-.18.13-.47.26-.63.3-1.13.25-2.13-.7-2-1.89.09-.87.75-1.51 1.56-1.52.43 0 .7.08 1.06.33l.31.2.14-.14c.18-.17.15-.21-.18-.44a2.24 2.24 0 0 0-1.64-.36Zm12.32-.01c-.66.1-1.2.49-1.5 1.12-.46.9-.3 1.91.4 2.6.44.42.76.54 1.46.55.53 0 .63-.02.92-.17.8-.39 1.3-1.29 1.2-2.16a2.1 2.1 0 0 0-2.48-1.93Zm.94.51c.34.12.73.5.92.88a2 2 0 0 1 0 1.47 1.62 1.62 0 0 1-2.54.61 1.6 1.6 0 0 1-.58-1.3c0-.65.2-1.11.63-1.43.41-.32 1.03-.4 1.57-.23Zm8.75-.51c-.9.14-1.56.82-1.72 1.78-.17.96.31 1.93 1.17 2.33.28.14.4.16.91.16s.63-.03.91-.16c.18-.08.42-.23.53-.33l.2-.18-.15-.16-.15-.15-.27.2c-.35.27-.63.36-1.1.36-.48 0-.85-.16-1.17-.53a1.7 1.7 0 0 1-.42-1.22c0-.96.68-1.68 1.57-1.68.43 0 .8.12 1.09.35.12.1.24.18.27.18.02 0 .1-.07.16-.16l.13-.16-.21-.17a2 2 0 0 0-1.01-.45l-.4-.05-.34.05Zm-38.99.08a349.17 349.17 0 0 1-1.86 4.13c0 .02.1.03.23.03h.22l.26-.56.25-.56 1.15.01 1.15.02.24.54.23.55h.25c.14 0 .24-.02.23-.05l-.95-2.12-.93-2.06h-.22c-.12 0-.23.03-.25.07Zm.75 1.6.44 1-.92.02-.94-.01c-.01-.02.18-.5.43-1.06a5.9 5.9 0 0 1 .5-1c.03.04.24.5.49 1.05Zm-114.56.47v2.09h.47v-4.17h-.47v2.08Zm1.75 0v2.09h.47v-4.17h-.47v2.08Zm1.76 0v2.09h.41v-4.17h-.4v2.08Zm3.47.01v2.09l1.22-.03c1.29-.02 1.43-.05 1.8-.34.23-.18.33-.42.33-.77 0-.44-.15-.69-.52-.87-.16-.08-.3-.16-.3-.18l.17-.13c.3-.17.43-.42.4-.87-.02-.46-.14-.64-.54-.85-.28-.14-.33-.14-1.42-.14h-1.14v2.09Zm2.26-1.6c.37.15.5.58.3.96-.14.3-.38.36-1.26.37h-.8l-.02-.7-.01-.71h.8c.55 0 .85.02 1 .08Zm.25 1.9c.3.16.39.3.38.6 0 .28-.1.44-.36.6-.18.12-.3.14-1.13.16l-.93.02v-1.56l.9.03c.77.02.93.05 1.14.15Zm6.24-.31v2.09h3.05v-.41H32.6v-1.47l1.14-.01 1.13-.02v-.41l-1.13-.02-1.13-.01v-1.41h2.52v-.41h-3v2.08Zm4 0v2.09h.47v-1.45l.75-.04c.8-.03 1.13-.11 1.46-.36.27-.2.44-.59.44-.99 0-.56-.22-.93-.68-1.18-.21-.11-.34-.12-1.33-.14l-1.1-.03v2.1Zm2.25-1.5c.28.17.4.4.4.74 0 .35-.16.6-.47.78-.2.12-.33.13-.96.15h-.72l-.02-.92-.01-.93.78.02c.7.02.8.03 1 .15Zm15.67 1.51v2.08l.24-.02.24-.01 1.24-1.73 1.24-1.73.02 1.74.01 1.75h.41v-4.17h-.44l-1.23 1.71-1.23 1.72-.02-1.72-.01-1.71h-.47v2.09Zm4.64-.01v2.09h.44l1.23-1.73 1.24-1.73.01 1.73.01 1.73h.47v-4.18l-.24.02-.24.02-1.21 1.68-1.21 1.68-.02-1.7-.01-1.7h-.47v2.1Zm8.98 0v2.09h.47v-1.09l.43-.46c.24-.24.45-.45.48-.44.04 0 .41.44.84 1l.78.99h.6l-.2-.26-.95-1.18-.75-.94.9-.9.9-.9h-.6l-1.22 1.25-1.2 1.25v-2.49h-.48v2.08Zm4.35 0v2.09h.44l1.24-1.73 1.23-1.73.02 1.73.01 1.73h.47v-4.18l-.25.02-.24.02-1.2 1.68-1.22 1.68-.01-1.7-.02-1.7h-.47v2.1Zm4.58 0v2.09h.46l1.21-1.7c.67-.92 1.24-1.7 1.27-1.7.03-.01.05.64.05 1.69v1.7H80v-4.16h-.44l-1.23 1.71-1.23 1.72-.02-1.72-.01-1.71h-.47v2.08Zm16.86 0v2.09h.47v-1.45l.75-.04c.8-.03 1.13-.11 1.47-.37.55-.43.6-1.46.06-1.94-.34-.32-.48-.34-1.64-.36l-1.1-.03v2.1Zm2.22-1.54c.41.23.56.85.3 1.27-.19.31-.5.41-1.31.42l-.71.01-.02-.92-.02-.92.79.02c.6.02.82.05.97.12ZM97 12.1l.92 1.58c.83 1.45.83 1.45.75 1.63-.2.37-.6.54-1.04.43-.23-.06-.24-.05-.33.12-.1.2-.1.18.15.27.48.16.97.04 1.33-.32.2-.19.45-.64 1.14-2.01l.88-1.8c0-.02-.1-.03-.24-.03h-.23l-.67 1.35L99 14.7l-.7-1.23-.76-1.36c-.07-.1-.14-.13-.35-.13-.27 0-.27 0-.2.13Zm4.69 1.95v2.09h.4l.02-1.7.02-1.68.75 1.1c.42.6.76 1.1.78 1.1l.77-1.1.75-1.1.02 1.69.01 1.69h.47v-4.17h-.51l-.75 1.12a5.7 5.7 0 0 1-.8 1.07l-.75-1.12-.71-1.07h-.47v2.08Zm6.98 0v2.09h.47v-3.76h2.36v3.76h.47v-4.17h-3.29v2.08Zm11.33.01v2.09l1.17-.03c1.26-.02 1.45-.06 1.8-.38.23-.22.33-.48.33-.88 0-.49-.17-.76-.61-.98-.34-.18-.38-.18-1.28-.2l-.93-.02v-1.28H123v-.41h-3v2.09Zm2.26.09c.13.03.3.14.4.22.14.15.17.22.17.5 0 .23-.04.35-.13.47-.23.3-.42.35-1.35.37l-.87.03v-1.66h.78c.42 0 .88.03 1 .07Zm2.51-1.22c0 1.5-.18 2.4-.53 2.7-.1.1-.2.12-.41.11-.26 0-.29 0-.32.14-.06.22.04.28.45.28.47 0 .68-.13.9-.57a5.7 5.7 0 0 0 .36-2.2l.04-1.01h1.8v3.76h.47v-4.17h-2.75l-.01.96Zm8.63 1.12v2.09h.47v-3.76h2.23v-.41h-2.7v2.08Zm7.82-2.06.83 1.45c1.13 1.96 1.02 1.71.8 1.96-.25.3-.48.4-.77.37a2.37 2.37 0 0 1-.34-.07c-.06-.03-.11 0-.16.12-.1.22-.09.25.16.31.53.16 1 .02 1.37-.4.14-.15.55-.89 1.1-2l.89-1.76h-.51l-.66 1.36-.66 1.36-.37-.64-.77-1.37-.4-.71h-.25c-.14 0-.26 0-.26.02Zm8.52.18v.2h1.4v3.78h.48v-3.76h1.4v-.42h-3.28v.2Zm4.16 1.88v2.09h.48v-1.45l.75-.04c1.06-.04 1.51-.23 1.78-.76.13-.27.17-.84.06-1.1-.1-.24-.36-.52-.62-.67-.22-.11-.34-.12-1.34-.14l-1.1-.03v2.1Zm2.24-1.53c.27.16.42.44.42.77a.8.8 0 0 1-.48.77c-.23.12-.35.14-.98.14h-.72v-1.83l.78.02c.65.01.8.03.98.13Zm6.87 1.53v2.09h.45l1.23-1.71 1.23-1.72.02 1.72v1.7h.48v-4.16h-.45l-1.23 1.7-1.23 1.7-.02-1.7v-1.7H163v2.08Zm8.75-1.88v.2h1.41v3.78h.47v-3.76l.7-.01.68-.02V12l-1.63-.02-1.63-.01v.2Zm4.17 1.89v2.09l1.2-.03 1.19-.01.35-.18c.55-.28.75-.8.53-1.34-.09-.22-.39-.5-.6-.54-.19-.05-.18-.1.06-.25.5-.32.52-1.15.04-1.56-.28-.23-.53-.27-1.7-.27h-1.07v2.09Zm2.2-1.62c.58.21.6.97.05 1.25-.18.1-1.45.2-1.65.13-.12-.04-.13-.08-.13-.74v-.7h.8c.43 0 .85.02.94.06Zm.22 1.89c.47.2.6.7.29 1.06-.24.27-.53.34-1.47.34h-.77V15c0-.4.02-.74.05-.77.08-.08 1.67 0 1.9.1Zm2.43-.78c.9 1.58.91 1.58.82 1.76-.19.37-.6.54-1.03.43-.23-.06-.24-.05-.33.12-.1.2-.11.18.15.27.47.16.97.04 1.33-.32.2-.2.44-.63 1.14-2.02l.88-1.8c0-.01-.1-.02-.24-.02h-.23l-.67 1.36-.66 1.36-.69-1.23-.77-1.36c-.07-.1-.14-.13-.35-.13h-.26l.91 1.58ZM54.64 21.42a5.56 5.56 0 0 0-4.66 4.05 4.5 4.5 0 0 0-.13 1.45c0 .79.02 1.01.13 1.43a5.5 5.5 0 0 0 4.14 3.98c.28.06.7.1 1.24.09a5.28 5.28 0 0 0 4.01-1.74c.59-.62.96-1.23 1.2-1.95.54-1.7.3-3.55-.65-4.92a7.15 7.15 0 0 0-1.67-1.61 5.84 5.84 0 0 0-3.6-.78Zm1.6 2.12c.63.16 1 .37 1.5.88.72.7 1 1.41 1 2.5a3.2 3.2 0 0 1-.96 2.47 3.46 3.46 0 0 1-5.67-1.17c-.31-.86-.3-1.92.04-2.71a3.52 3.52 0 0 1 2.54-2.05c.4-.07 1.13-.03 1.55.08Zm27.96-2.11a5.6 5.6 0 0 0-2.41.88 6.53 6.53 0 0 0-1.76 1.93c-.4.7-.67 1.79-.67 2.65 0 .54.15 1.42.33 1.93a5.58 5.58 0 0 0 3.97 3.5 7.2 7.2 0 0 0 2.45 0 5.57 5.57 0 0 0 4.13-3.94c.18-.67.18-2.25 0-2.92a5.55 5.55 0 0 0-6.05-4.03Zm1.59 2.1c.63.17 1 .38 1.5.89a3.16 3.16 0 0 1 1.02 2.5 3.45 3.45 0 0 1-2.3 3.32c-.33.11-.51.14-1.13.14-.6 0-.8-.03-1.11-.14-.55-.2-1-.48-1.4-.92a3.22 3.22 0 0 1-.9-2.4 3.13 3.13 0 0 1 1-2.5c.25-.25.58-.52.75-.6.72-.39 1.73-.5 2.57-.28Zm8.54-2.11a3.67 3.67 0 0 0-2.95 1.98l-.15.24.9.52c.53.3.9.49.91.45.06-.2.46-.71.69-.88.33-.26.7-.37 1.23-.37.55 0 .91.13 1.17.41.45.5.43 1.2-.05 1.68-.33.34-.68.44-1.6.44h-.72v1.87l.98.02c.87.02 1.02.04 1.28.15.54.26.8.62.8 1.19s-.26.93-.8 1.19c-.25.11-.39.13-.97.13a2.03 2.03 0 0 1-2.04-1.17l-.15-.33-.41.24-.88.49c-.25.13-.46.28-.46.32 0 .25.64 1.19 1.04 1.52a4.95 4.95 0 0 0 5.24.36c1.88-1.07 2.03-3.85.27-4.96l-.25-.16.32-.31c.65-.65.92-1.6.73-2.61a3.04 3.04 0 0 0-2.3-2.28 5.62 5.62 0 0 0-1.83-.13Zm-77.7 5.5v5.31h1.57l1.31-1.87 2.25-3.2c.51-.73.95-1.32.95-1.31.02 0 .03 1.45.03 3.2v3.18h2.11V21.6l-.8.02-.8.02-2.27 3.23-2.27 3.23-.01-3.25-.02-3.24h-2.05v5.32Zm10.57 0v5.31h2.1l.01-3.42.02-3.42 1.48 2.44c1.22 2 1.5 2.43 1.6 2.43.1 0 .4-.42 1.6-2.44l1.49-2.44.01 3.43.02 3.42h2.05l.01-5.25a337 337 0 0 0 0-5.32 4.54 4.54 0 0 0-1.08-.06h-1.07l-1.5 2.5a77.25 77.25 0 0 1-1.53 2.5c-.01 0-.7-1.12-1.53-2.5l-1.5-2.47-1.1-.02-1.1-.01v5.32Zm12.8 0v5.31h2.06V23.6h3.76v8.63h2.11V21.6H40v5.32Zm22.74 0v5.31h2.05l.02-1.74.01-1.74.91.01c1.5.01 2.24-.13 2.94-.59a3.57 3.57 0 0 0-.31-6.18c-.74-.36-.98-.39-3.43-.39h-2.2v5.32Zm4.58-3.23c.59.28.9.78.9 1.46 0 .68-.31 1.22-.87 1.48-.28.13-.36.14-1.42.14h-1.14V25.2c0-.87.02-1.6.05-1.63.02-.02.53-.03 1.13-.02.96.02 1.12.03 1.35.14Zm3.76-1.09v1h2.88v8.63H76V23.6h2.88v-2h-7.8v1Zm32.32-.87a998.6 998.6 0 0 0-3.65 10.46c0 .02.5.04 1.1.04h1.12l.31-.96.33-.95 2.11-.01 2.12-.02.32.96.32.95 1.12.02c.63 0 1.13 0 1.13-.03l-1.46-4.22-1.84-5.25-.39-1.09-1.3-.02-1.3-.01-.05.13Zm2.1 4.55.7 2.08h-2.92l.7-2.08c.38-1.15.71-2.12.74-2.16.03-.06.05-.06.07 0l.72 2.16Zm5.7.64v5.31h2.06v-3.4c0-1.88.02-3.41.05-3.41.02 0 .7 1.1 1.5 2.44 1.15 1.89 1.5 2.43 1.6 2.43.09 0 .43-.52 1.6-2.47l1.5-2.48.02 3.44.01 3.45h2.06V21.6h-2.16l-1.5 2.48a58.59 58.59 0 0 1-1.53 2.48c-.03 0-.72-1.11-1.55-2.48l-1.51-2.48h-2.15v5.32Zm12.74 0v5.31h6.58v-2h-4.46v-2.4h4v-1.94h-4V23.6h4.4v-2h-6.52v5.32Zm8.46 0v5.31h11.4v.71l1.05-.02 1.04-.01.02-1.34v-1.34h-1.17V21.6h-2.05v8.63h-3.06V21.6h-2.11v8.63h-3v-8.56c0-.05-.24-.07-1.06-.07h-1.05v5.32Zm15.28 0v5.31h6.58v-2h-4.48v-2.4h4v-1.94h-4V23.6h4.4v-2h-6.51v5.32Zm8.46 0v5.31h2.05v-4.4h4v4.4h2.05V21.6h-2.05v4.23h-4V21.6h-2.05v5.32Zm10.46 0v5.31h1.6l2.27-3.22 2.26-3.22.02 3.22.01 3.22h2.12V21.6h-1.62l-1 1.43-2.25 3.22-1.27 1.81-.02-3.23-.01-3.23h-2.12v5.32Zm10.63 0v5.31h6.58v-2h-4.47v-2.4h4v-1.94h-4V23.6h4.4v-2h-6.51v5.32Z"/><path fill="#F12339" d="M21.27 37.23a5.8 5.8 0 0 0-5 4.75c-.12.68-.1 1.97.05 2.63a5.68 5.68 0 0 0 1.52 2.78A5.7 5.7 0 0 0 20.7 49c.72.17 2.29.15 2.97-.03a5.97 5.97 0 0 0 2.51-1.39c.4-.37.92-1.05.87-1.13-.02-.04-.68-.43-1.66-1l-.25-.14-.1.18c-.3.61-1.3 1.23-2.2 1.4a3.71 3.71 0 0 1-3.34-.98 3.51 3.51 0 0 1-1.09-2.76c.01-1.2.33-2.02 1.08-2.76a3.42 3.42 0 0 1 2.62-1.02c1.05 0 1.84.3 2.5.95.21.21.42.45.47.53l.1.15.94-.56c.52-.3.95-.56.95-.59 0-.1-.43-.66-.76-1a5.83 5.83 0 0 0-2.9-1.55 8.07 8.07 0 0 0-2.15-.08Zm68.23.02c-.9.14-1.84.54-2.5 1.03a6.73 6.73 0 0 0-1.97 2.38 6.71 6.71 0 0 0-.2 4.5A6.04 6.04 0 0 0 88.97 49c.77.19 2.3.19 3.05 0 2-.51 3.61-2.07 4.24-4.1.16-.5.16-.59.16-1.7 0-1.04-.02-1.24-.13-1.65a6.14 6.14 0 0 0-3.77-4.03c-.84-.3-2.14-.4-3.02-.26Zm1.53 2.15a3.5 3.5 0 0 1 2.13 1.07c.68.7 1 1.44 1.05 2.48a3.64 3.64 0 0 1-3.72 4 3.66 3.66 0 0 1-3.65-2.88 5.04 5.04 0 0 1 .1-2.15 3.68 3.68 0 0 1 3-2.52c.54-.07.59-.07 1.09 0Zm39.92-2.17a5.95 5.95 0 0 0-4.98 4.6c-.21.99-.15 2.34.15 3.27a6.07 6.07 0 0 0 4.24 3.9c.2.06.73.11 1.16.13a5.55 5.55 0 0 0 3.82-1.1 6.54 6.54 0 0 0 1.88-2.21c.44-.88.66-2.18.54-3.26a5.61 5.61 0 0 0-1.45-3.36 5.81 5.81 0 0 0-3.18-1.89 8.88 8.88 0 0 0-2.18-.08Zm2.05 2.32a3.68 3.68 0 0 1 2.32 2.26 5 5 0 0 1 .11 2.31 3.7 3.7 0 0 1-2.62 2.72c-.6.16-1.6.13-2.2-.06a3.66 3.66 0 0 1-2.36-2.35 3.26 3.26 0 0 1-.16-1.21c0-.84.1-1.27.4-1.88.22-.46.98-1.25 1.42-1.5.92-.5 2.07-.6 3.09-.29Zm11.36-2.32a5.75 5.75 0 0 0-2.55.94 5.9 5.9 0 0 0-2.56 5.38 5.7 5.7 0 0 0 1.63 3.82 5.63 5.63 0 0 0 4.35 1.78c1.29 0 2.37-.34 3.44-1.07.6-.42 1.55-1.47 1.46-1.63a8.95 8.95 0 0 0-.76-.45l-.93-.54-.21-.13-.15.22c-.4.6-1.1 1.07-1.87 1.29-.5.14-1.53.14-2.05 0a3.17 3.17 0 0 1-1.62-.94c-.78-.79-1.05-1.5-1.05-2.74 0-1.23.3-1.99 1.07-2.76a3.41 3.41 0 0 1 2.68-1.01c.54 0 .73.02 1.12.14a3.6 3.6 0 0 1 1.77 1.3l.12.18.94-.55.95-.57c.05-.04-.4-.63-.7-.97a5.86 5.86 0 0 0-5.08-1.7Zm12.1 0a6.5 6.5 0 0 0-1.86.56 5.4 5.4 0 0 0-1.6 1.2 5.46 5.46 0 0 0-1.5 2.87c-.12.53-.13.75-.1 1.53.03 1 .13 1.48.45 2.25a5.86 5.86 0 0 0 3.42 3.2c1.66.56 3.72.36 5.14-.5.7-.42 1.4-1.09 1.8-1.72l.1-.16-.96-.57-.95-.55-.12.15a3.35 3.35 0 0 1-1.76 1.29c-.4.12-.6.15-1.15.16a3.6 3.6 0 0 1-3.67-2.81 4.8 4.8 0 0 1 .3-2.81 3.54 3.54 0 0 1 2.31-1.84c.5-.13 1.5-.13 1.98 0 .75.2 1.48.67 1.84 1.2.11.16.22.3.24.3.03 0 1.84-1.02 1.93-1.09a4.9 4.9 0 0 0-.92-1.15 5.85 5.85 0 0 0-2.75-1.43 8.2 8.2 0 0 0-2.17-.08ZM30.43 40.32c0 1.62-.02 3.23-.06 3.6a6.94 6.94 0 0 1-.56 2.23c-.3.66-.3.65-.94.65h-.55l.01 1.48.02 1.49 1.13.01 1.13.02v-.89l3.2.02 3.17.01.02.43.02.43h2.23v-3H38v-9.4h-7.58v2.92Zm5.34 2.82-.02 3.63-1.93.02c-1.53.01-1.92 0-1.9-.06.32-.76.41-1 .5-1.4.2-.83.25-1.55.25-3.73v-2.08h3.11l-.01 3.62Zm5.36.02v5.76h7.1V46.8l-2.42-.01-2.42-.02v-2.59l2.19-.01 2.18-.01v-2.12h-2.18l-2.2-.03-.01-1.22-.01-1.21h4.81V37.4h-7.04v5.76Zm11.71-3.46-1.41 4.05a509.4 509.4 0 0 0-1.8 5.14c0 .02.55.02 1.22.01l1.21-.01 1.48-4.4 1.5-4.4c.04-.04.17.33 2.01 5.84l1 2.99h2.45l-.28-.81-1.68-4.77a964.59 964.59 0 0 0-2.06-5.84c-.04-.09-.16-.1-1.44-.1h-1.4l-.8 2.3Zm12.84-2.1-.5 1.42-.81 2.32a703.4 703.4 0 0 0-2.63 7.54c0 .02.55.03 1.21.02l1.21-.01.34-1.01.33-1.02 2.31.02h2.31l.35 1 .33 1 1.22.02 1.21.02-.03-.13a1034.56 1034.56 0 0 0-3.9-11.14l-.09-.25h-2.8l-.06.2Zm3.02 7.01.04.14h-1.59c-.87 0-1.59-.01-1.59-.02l1.56-4.63c.03-.06 1.12 3.05 1.58 4.51Zm5.38-1.45v5.76h2.22v-4.76h4.35v4.76h2.24V37.4h-2.23v4.58H76.3V37.4h-2.22v5.76Zm27.9 0v5.76h2.72c2.52 0 2.76-.01 3.17-.12 2-.51 3.05-2.5 2.34-4.4-.17-.44-.5-.86-.93-1.19l-.35-.27.28-.28c.84-.83 1.03-2.28.46-3.44a3.4 3.4 0 0 0-2.37-1.73 19.9 19.9 0 0 0-2.9-.09h-2.42v5.76Zm4.98-3.56c.7.25 1 1.3.56 1.93-.1.14-.3.31-.43.4-.26.14-.3.14-1.56.14h-1.3l-.01-1.28-.01-1.27h1.27c.84 0 1.35.03 1.48.08Zm.46 4.61c.33.15.64.54.72.9.13.52 0 1-.37 1.35-.35.34-.46.36-2 .38-.76 0-1.43 0-1.48-.02-.07-.02-.08-.27-.08-1.38V44.1h1.48c1.31 0 1.52.02 1.73.11Zm8.66-1.06v5.77h2.22v-3.75l1.37-.03c1.48-.04 1.73-.07 2.38-.37a4.12 4.12 0 0 0 1.83-1.73c.44-.87.52-2.13.18-3.1a3.97 3.97 0 0 0-2.44-2.35l-.47-.15-2.54-.03-2.54-.01v5.75Zm4.76-3.57c1.27.35 1.63 2.12.63 3.02-.43.39-.67.44-2.03.44h-1.13v-3.52h1.16c.64 0 1.25.03 1.37.06Zm42.88 3.58v5.76h1.75l2.28-3.25 2.45-3.5.18-.26.02 3.5.01 3.5h2.23V37.4h-1.68l-2.4 3.42a328.54 328.54 0 0 1-2.47 3.51c-.07.07-.08-.43-.08-3.42v-3.5h-2.3v5.75Zm11.1 0v5.76h1.75l1.08-1.55 3.57-5.09.26-.37.02 3.5.01 3.5h2.24V37.4h-1.7l-.74 1.07-2.46 3.51-1.71 2.44-.02-3.51-.01-3.5h-2.29v5.75Z"/></svg>